<svg width="14" height="18" viewBox="0 0 14 18" fill="none" xmlns="http://www.w3.org/2000/svg">
<path d="M13.8131 4.51205L9.53352 0.188839C9.4142 0.0683036 9.25312 0 9.08409 0H0.636364C0.284375 0 0 0.287277 0 0.642857V17.3571C0 17.7127 0.284375 18 0.636364 18H13.3636C13.7156 18 14 17.7127 14 17.3571V4.96808C14 4.79732 13.9324 4.63259 13.8131 4.51205ZM12.5324 5.26339H8.78977V1.48259L12.5324 5.26339ZM12.5682 16.5536H1.43182V1.44643H7.4375V5.78571C7.4375 6.00949 7.5255 6.2241 7.68213 6.38234C7.83877 6.54057 8.05121 6.62946 8.27273 6.62946H12.5682V16.5536ZM7.63636 8.19643C7.63636 8.10804 7.56477 8.03571 7.47727 8.03571H6.52273C6.43523 8.03571 6.36364 8.10804 6.36364 8.19643V10.3661H4.21591C4.12841 10.3661 4.05682 10.4384 4.05682 10.5268V11.4911C4.05682 11.5795 4.12841 11.6518 4.21591 11.6518H6.36364V13.8214C6.36364 13.9098 6.43523 13.9821 6.52273 13.9821H7.47727C7.56477 13.9821 7.63636 13.9098 7.63636 13.8214V11.6518H9.78409C9.87159 11.6518 9.94318 11.5795 9.94318 11.4911V10.5268C9.94318 10.4384 9.87159 10.3661 9.78409 10.3661H7.63636V8.19643Z" fill="black"/>
</svg>
