<svg width="20" height="18" viewBox="0 0 20 18" fill="none" xmlns="http://www.w3.org/2000/svg">
<path d="M2.36174 8.77726C1.91082 8.32153 1.56155 7.77366 1.33734 7.17039C1.11314 6.56711 1.01918 5.92237 1.06176 5.2794C1.10435 4.63643 1.2825 4.01009 1.58426 3.44238C1.88603 2.87467 2.30444 2.37871 2.81144 1.98776C3.31843 1.59681 3.90229 1.3199 4.52388 1.1756C5.14546 1.03131 5.79039 1.02296 6.41542 1.15111C7.04046 1.27927 7.63115 1.54097 8.14789 1.91867C8.66464 2.29637 9.09549 2.78133 9.41155 3.34104H10.5884C10.9045 2.78133 11.3354 2.29637 11.8521 1.91867C12.3688 1.54097 12.9595 1.27927 13.5846 1.15111C14.2096 1.02296 14.8545 1.03131 15.4761 1.1756C16.0977 1.3199 16.6816 1.59681 17.1886 1.98776C17.6956 2.37871 18.114 2.87467 18.4157 3.44238C18.7175 4.01009 18.8957 4.63643 18.9382 5.2794C18.9808 5.92237 18.8869 6.56711 18.6627 7.17039C18.4384 7.77366 18.0892 8.32153 17.6383 8.77726L10 16.4971L2.36174 8.77832V8.77726ZM18.3815 9.53244C18.9206 8.98767 19.3423 8.33608 19.6201 7.61865C19.8979 6.90121 20.0258 6.13346 19.9957 5.36367C19.9656 4.59388 19.7782 3.83871 19.4452 3.14566C19.1123 2.4526 18.641 1.83665 18.0611 1.33654C17.4811 0.836434 16.805 0.462992 16.0753 0.2397C15.3455 0.0164086 14.578 -0.0519014 13.8208 0.039066C13.0637 0.130033 12.3334 0.37831 11.6759 0.768282C11.0183 1.15825 10.4477 1.68148 10 2.30507C9.55228 1.68148 8.9817 1.15825 8.32414 0.768282C7.66659 0.37831 6.93628 0.130033 6.17916 0.039066C5.42203 -0.0519014 4.65447 0.0164086 3.92474 0.2397C3.19501 0.462992 2.5189 0.836434 1.93894 1.33654C1.35897 1.83665 0.887699 2.4526 0.554755 3.14566C0.22181 3.83871 0.0343986 4.59388 0.00430626 5.36367C-0.025786 6.13346 0.102092 6.90121 0.379898 7.61865C0.657704 8.33608 1.07943 8.98767 1.61855 9.53244L10 18L18.3815 9.5335V9.53244Z" fill="black"/>
</svg>
